<svg xmlns="http://www.w3.org/2000/svg" width="1148" height="572" viewBox="0 0 1148 572">
<defs><marker id="arrow" markerWidth="8" markerHeight="8" refX="7" refY="4" orient="auto-start-reverse"><path d="M1 1 L7 4 L1 7" fill="none" stroke="#444444"/></marker></defs>
<rect width="1148" height="572" fill="white"/>
<text x="30.00" y="42.00" font-family="Arial" font-size="20" text-anchor="start" fill="#111111" font-weight="bold">quartus_word_ram.sv — overview</text>
<text x="30.00" y="66.00" font-family="Arial" font-size="12" text-anchor="start" fill="#666666">current-RTL functional architecture</text>
<text x="30.00" y="83.00" font-family="Arial" font-size="12" text-anchor="start" fill="#666666">RTL: quartus_word_ram.sv · clk; SRAM storage has no reset</text>
<polyline points="142.5,184 142.5,269 420,269" fill="none" stroke="#444444" marker-end="url(#arrow)"/>
<polyline points="395,184 395,236 460.3,236 460.3,254" fill="none" stroke="#444444" marker-end="url(#arrow)"/>
<polyline points="645,184 645,236 579.7,236 579.7,254" fill="none" stroke="#444444" marker-end="url(#arrow)"/>
<polyline points="520,318 520,388" fill="none" stroke="#444444" marker-end="url(#arrow)"/>
<polyline points="911.5,184 911.5,269 620,269" fill="none" stroke="#444444" marker-end="url(#arrow)" stroke-dasharray="5 4"/>
<rect x="40" y="120" width="205" height="64" fill="#b1ddf0" stroke="#10739e"/>
<text x="142.50" y="156.00" font-family="Arial" font-size="12" text-anchor="middle" fill="#111111">Write address data enable</text>
<rect x="420" y="254" width="200" height="64" fill="#e1d5e7" stroke="#9673a6"/>
<text x="520.00" y="290.00" font-family="Arial" font-size="12" text-anchor="middle" fill="#111111">altsyncram M10K 1R 1W</text>
<rect x="295" y="120" width="200" height="64" fill="#b1ddf0" stroke="#10739e"/>
<text x="395.00" y="156.00" font-family="Arial" font-size="12" text-anchor="middle" fill="#111111">Read address enable</text>
<rect x="545" y="120" width="200" height="64" fill="#b1ddf0" stroke="#10739e"/>
<text x="645.00" y="156.00" font-family="Arial" font-size="12" text-anchor="middle" fill="#111111">Common clock</text>
<rect x="420" y="388" width="200" height="64" fill="#b1ddf0" stroke="#10739e"/>
<text x="520.00" y="424.00" font-family="Arial" font-size="12" text-anchor="middle" fill="#111111">Raw read after one edge</text>
<rect x="795" y="120" width="233" height="64" fill="#f5f5f5" stroke="#666666"/>
<text x="911.50" y="156.00" font-family="Arial" font-size="12" text-anchor="middle" fill="#111111">OLD_DATA and no storage reset</text>
<text x="30.00" y="558.00" font-family="Arial" font-size="11" text-anchor="start" fill="#666666">Red: control · Yellow: interface · Gray: registers / buffers · Blue: compute / output · Purple: memory / technology</text>
</svg>
