<svg xmlns="http://www.w3.org/2000/svg" width="800" height="974" viewBox="0 0 800 974">
<defs><marker id="arrow" markerWidth="8" markerHeight="8" refX="7" refY="4" orient="auto-start-reverse"><path d="M1 1 L7 4 L1 7" fill="none" stroke="#444444"/></marker></defs>
<rect width="800" height="974" fill="white"/>
<text x="30.00" y="42.00" font-family="Arial" font-size="20" text-anchor="start" fill="#111111" font-weight="bold">sigmoid.sv — detail 1</text>
<text x="30.00" y="66.00" font-family="Arial" font-size="12" text-anchor="start" fill="#666666">current-RTL functional architecture</text>
<text x="30.00" y="83.00" font-family="Arial" font-size="12" text-anchor="start" fill="#666666">RTL: sigmoid.sv · clk / rst_n at module boundary; see configured parent port map</text>
<polyline points="235,184 235,254" fill="none" stroke="#444444" marker-end="url(#arrow)"/>
<polyline points="235,318 235,388" fill="none" stroke="#444444" marker-end="url(#arrow)"/>
<polyline points="235,452 235,504 240.75,504 240.75,522" fill="none" stroke="#444444" marker-end="url(#arrow)"/>
<polyline points="246,586 246,656" fill="none" stroke="#444444" marker-end="url(#arrow)"/>
<polyline points="246,720 246,772 305.55,772 305.55,790" fill="none" stroke="#444444" marker-end="url(#arrow)"/>
<polyline points="430.55,452 430.55,504 305.7,504 305.7,522" fill="none" stroke="#444444" marker-end="url(#arrow)" stroke-dasharray="5 4"/>
<polyline points="490.25,452 490.25,772 424.96,772 424.96,790" fill="none" stroke="#444444" marker-end="url(#arrow)" stroke-dasharray="5 4"/>
<rect x="135" y="120" width="200" height="64" fill="#b1ddf0" stroke="#10739e"/>
<text x="235.00" y="147.50" font-family="Arial" font-size="12" text-anchor="middle" fill="#111111">Input / fractional bits</text>
<text x="235.00" y="164.50" font-family="Arial" font-size="12" text-anchor="middle" fill="#111111">S16; F0…F24</text>
<rect x="135" y="254" width="200" height="64" fill="#b1ddf0" stroke="#10739e"/>
<text x="235.00" y="281.50" font-family="Arial" font-size="12" text-anchor="middle" fill="#111111">Coordinate conversion</text>
<text x="235.00" y="298.50" font-family="Arial" font-size="12" text-anchor="middle" fill="#111111">S45 and clamp</text>
<rect x="135" y="388" width="200" height="64" fill="#b1ddf0" stroke="#10739e"/>
<text x="235.00" y="415.50" font-family="Arial" font-size="12" text-anchor="middle" fill="#111111">Index / fraction</text>
<text x="235.00" y="432.50" font-family="Arial" font-size="12" text-anchor="middle" fill="#111111">U9 / U24</text>
<rect x="146" y="522" width="200" height="64" fill="#b1ddf0" stroke="#10739e"/>
<text x="246.00" y="549.50" font-family="Arial" font-size="12" text-anchor="middle" fill="#111111">Bounded sample addresses</text>
<text x="246.00" y="566.50" font-family="Arial" font-size="12" text-anchor="middle" fill="#111111">Index and index + 1</text>
<rect x="146" y="656" width="200" height="64" fill="#b1ddf0" stroke="#10739e"/>
<text x="246.00" y="683.50" font-family="Arial" font-size="12" text-anchor="middle" fill="#111111">Shared sigmoid ROM</text>
<text x="246.00" y="700.50" font-family="Arial" font-size="12" text-anchor="middle" fill="#111111">257 × U16 samples</text>
<rect x="260" y="790" width="200" height="64" fill="#f5f5f5" stroke="#666666"/>
<text x="360.00" y="817.50" font-family="Arial" font-size="12" text-anchor="middle" fill="#111111">Adjacent sample storage</text>
<text x="360.00" y="834.50" font-family="Arial" font-size="12" text-anchor="middle" fill="#111111">y0 / y1</text>
<rect x="385" y="388" width="200" height="64" fill="#f8cecc" stroke="#b85450"/>
<text x="485.00" y="424.00" font-family="Arial" font-size="12" text-anchor="middle" fill="#111111">Sample controller</text>
<text x="30.00" y="960.00" font-family="Arial" font-size="11" text-anchor="start" fill="#666666">Red: control · Yellow: interface · Gray: registers / buffers · Blue: compute / output · Purple: memory / technology</text>
</svg>
