<svg xmlns="http://www.w3.org/2000/svg" width="800" height="572" viewBox="0 0 800 572">
<defs><marker id="arrow" markerWidth="8" markerHeight="8" refX="7" refY="4" orient="auto-start-reverse"><path d="M1 1 L7 4 L1 7" fill="none" stroke="#444444"/></marker></defs>
<rect width="800" height="572" fill="white"/>
<text x="30.00" y="42.00" font-family="Arial" font-size="20" text-anchor="start" fill="#111111" font-weight="bold">sram_word_tile.sv — overview</text>
<text x="30.00" y="66.00" font-family="Arial" font-size="12" text-anchor="start" fill="#666666">current-RTL functional architecture</text>
<text x="30.00" y="83.00" font-family="Arial" font-size="12" text-anchor="start" fill="#666666">RTL: sram_word_tile.sv · clk; SRAM storage has no reset</text>
<polyline points="235,184 235,236 300.95,236 300.95,254" fill="none" stroke="#444444" marker-end="url(#arrow)"/>
<polyline points="487.5,184 487.5,236 421.55,236 421.55,254" fill="none" stroke="#444444" marker-end="url(#arrow)"/>
<polyline points="361.25,318 361.25,388" fill="none" stroke="#444444" marker-end="url(#arrow)"/>
<rect x="132.5" y="120" width="205" height="64" fill="#b1ddf0" stroke="#10739e"/>
<text x="235.00" y="156.00" font-family="Arial" font-size="12" text-anchor="middle" fill="#111111">wr_en / wr_addr / wr_data</text>
<rect x="255.25" y="254" width="212" height="64" fill="#e1d5e7" stroke="#9673a6"/>
<text x="361.25" y="281.50" font-family="Arial" font-size="12" text-anchor="middle" fill="#111111">WIDTH x ROWS memory array</text>
<text x="361.25" y="298.50" font-family="Arial" font-size="12" text-anchor="middle" fill="#111111">No reset or initialization</text>
<rect x="387.5" y="120" width="200" height="64" fill="#b1ddf0" stroke="#10739e"/>
<text x="487.50" y="156.00" font-family="Arial" font-size="12" text-anchor="middle" fill="#111111">rd_en / rd_addr</text>
<rect x="244.75" y="388" width="233" height="64" fill="#f5f5f5" stroke="#666666"/>
<text x="361.25" y="415.50" font-family="Arial" font-size="12" text-anchor="middle" fill="#111111">Registered rd_data</text>
<text x="361.25" y="432.50" font-family="Arial" font-size="12" text-anchor="middle" fill="#111111">Same-edge collision: old data</text>
<text x="30.00" y="558.00" font-family="Arial" font-size="11" text-anchor="start" fill="#666666">Red: control · Yellow: interface · Gray: registers / buffers · Blue: compute / output · Purple: memory / technology</text>
</svg>
